<?xml version="1.0" encoding="UTF-8" standalone="no"?>
<svg
   width="532"
   height="532"
   viewBox="0 0 532 532"
   version="1.1"
   id="svg5"
   sodipodi:docname="female_avatar.svg"
   inkscape:version="1.3.2 (091e20e, 2023-11-25, custom)"
   xmlns:inkscape="http://www.inkscape.org/namespaces/inkscape"
   xmlns:sodipodi="http://sodipodi.sourceforge.net/DTD/sodipodi-0.dtd"
   xmlns="http://www.w3.org/2000/svg"
   xmlns:svg="http://www.w3.org/2000/svg">
  <defs
     id="defs5" />
  <sodipodi:namedview
     id="namedview5"
     pagecolor="#ffffff"
     bordercolor="#000000"
     borderopacity="0.25"
     inkscape:showpageshadow="2"
     inkscape:pageopacity="0.0"
     inkscape:pagecheckerboard="0"
     inkscape:deskcolor="#d1d1d1"
     showgrid="false"
     inkscape:zoom="0.95676692"
     inkscape:cx="266"
     inkscape:cy="262.86444"
     inkscape:window-width="1366"
     inkscape:window-height="705"
     inkscape:window-x="-8"
     inkscape:window-y="-8"
     inkscape:window-maximized="1"
     inkscape:current-layer="svg5">
    <inkscape:grid
       id="grid6"
       units="px"
       originx="0"
       originy="0"
       spacingx="1"
       spacingy="1"
       empcolor="#0099e5"
       empopacity="0.30196078"
       color="#0099e5"
       opacity="0.14901961"
       empspacing="5"
       dotted="false"
       gridanglex="30"
       gridanglez="30"
       visible="false" />
  </sodipodi:namedview>
  <circle
     style="opacity:1;fill:#ffffff;fill-opacity:1;stroke:#000000;stroke-width:0;stroke-linejoin:bevel;stroke-miterlimit:0;paint-order:stroke markers fill"
     id="path6"
     cx="265.99997"
     cy="275.40674"
     r="258.68369" />
  <polygon
     points="379.19 379.04999 246.19 379.04999 246.19 199.04999 361.19 262.04999 379.19 379.04999"
     fill="#2f2e41"
     id="polygon1" />
  <circle
     cx="270.76004"
     cy="260.93216"
     r="86.34897"
     fill="#ffb6b6"
     id="circle1" />
  <polygon
     points="221.19 360.04999 217.28893 320.61639 295.19 306.04999 341.19 418.04999 261.19 510.04999 204.19 398.04999 221.19 360.04999"
     fill="#ffb6b6"
     id="polygon2" />
  <path
     d="m 457.03998,452.79954 c -0.98117,1.02781 -1.98259,2.04543 -2.98401,3.05287 -3.17626,3.19535 -6.41322,6.2991 -9.721,9.31129 -49.56571,45.22322 -113.16156,69.97186 -180.54056,69.97186 -62.11896,0 -121.02128,-21.03434 -168.675166,-59.75494 -0.03032,-0.0204 -0.05057,-0.0407 -0.08094,-0.0712 -1.4465,-1.17023 -2.872758,-2.3609 -4.299068,-3.57187 0.252887,-0.73266 0.526024,-1.45519 0.799162,-2.16754 15.324862,-40.16561 45.590352,-59.81593 63.959982,-68.41487 9.1039,-4.26385 15.28443,-5.82078 15.28443,-5.82078 l 21.56616,-39.0768 15.1833,28.49348 11.18769,21.00378 45.90392,86.16224 39.60202,-99.19801 12.26998,-30.75264 3.14596,-7.8764 14.96073,11.71287 14.16163,11.08194 28.51546,6.32959 23.13404,5.13899 31.41859,6.98096 c 12.70501,10.41028 20.43323,30.21327 24.75255,54.81943 0.16181,0.87514 0.31357,1.76047 0.45514,2.6458 z"
     fill="#ce4a9c"
     id="path2"
     style="display:inline;stroke-width:1.01458" />
  <path
     d="m225.33945,162.80316c10.51816-17.66798,29.83585-29.79031,50.31992-31.577,20.48407-1.78667,41.60876,6.80817,55.02692,22.38837,7.99588,9.28423,13.23862,20.65456,21.03256,30.10893,16.77231,20.3455,45.37225,32.2415,52.69913,57.57068,3.19727,11.05298,1.6041,22.85326-.01367,34.24507-1.3866,9.76407-2.77322,19.52817-4.15985,29.29224-1.0791,7.59863-2.11386,15.60931.73538,22.73569,3.34277,8.36084,11.34241,13.83688,16.51462,21.20749,8.80081,12.54153,8.15744,30.90353-1.49963,42.79834-4.18805,5.15848-9.74042,9.04874-14.13116,14.03583s-7.64764,11.80563-5.80865,18.19058c3.52286,12.23126,22.70462,15.16449,24.80847,27.7179,1.07565,6.41818-3.35748,12.82758-9.1658,15.76245s-12.64572,3.02011-19.10587,2.23492c-24.55347-2.98438-47.28705-18.32629-59.24158-39.97961-11.95456-21.65335-12.82504-49.06561-2.26843-71.43384,8.67035-18.37146,24.78519-34.60559,24.60965-54.91949-.09564-11.0668-5.17172-21.4032-10.13535-31.29489-10.15924-20.24577-20.31851-40.49153-30.47775-60.7373-5.44196-10.84496-11.75745-22.53171-22.96112-27.19061-8.65872-3.60063-18.48325-2.20412-27.74442-.73141s-19.07155,2.90622-27.75604-.63181-15.24644-14.04982-11.1087-22.4651"
     fill="#2f2e41"
     id="path3" />
  <path
     d="m240.47141,163.72575c-16.68272-5.49146-35.39705,3.32417-46.6913,16.77441-11.29425,13.45026-16.77287,30.70596-21.992,47.47588-2.98952,9.60582-5.97903,19.21164-8.96854,28.81747-2.81226,9.03625-5.6245,18.07248-8.43675,27.10873-3.30785,10.62869-6.64275,21.9205-3.92802,32.71591,1.96262,7.8046,7.01262,14.89124,7.12131,22.93808.11353,8.40567-5.15047,15.7851-9.7636,22.81268-4.61311,7.02759-8.94347,15.37701-6.74557,23.49103,3.34306,12.34174,20.502,19.12564,19.56139,31.87747-.3139,4.25571-2.7749,8.19205-2.73022,12.45908.05684,5.42914,4.30745,10.1203,9.2874,12.28336,4.97997,2.16306,10.5818,2.28052,16.01041,2.18506,16.65134-.29279,33.27257-2.27026,49.52779-5.89246,6.25403-1.39359,12.61382-3.10281,17.81967-6.83832s9.0894-9.92447,8.41191-16.29596c-1.05576-9.92862-11.73091-15.56143-17.11801-23.96805-5.29137-8.25723-5.16869-18.71957-7.45038-28.25763-3.13582-13.10846-10.88029-24.55249-16.69402-36.71249-21.85695-45.71606-14.20572-103.98718,18.71225-142.51109,2.91051-3.40616,6.0903-6.83273,7.30457-11.14532,1.21426-4.31261-.35107-9.80727-4.5697-11.31593"
     fill="#2f2e41"
     id="path4" />
</svg>
